Coordinates
version=1
nRows=20
nColumns=34
inDegrees=yes

Units are S.I. units (second, meters, Newtons, ...)
Angles are in degrees.

endheader
time	pelvis_tilt	pelvis_list	pelvis_rotation	pelvis_tx	pelvis_ty	pelvis_tz	hip_flexion_r	hip_adduction_r	hip_rotation_r	knee_angle_r	ankle_angle_r	subtalar_angle_r	mtp_angle_r	hip_flexion_l	hip_adduction_l	hip_rotation_l	knee_angle_l	socket_flexion	socket_adduction	socket_rotation	socket_tx	socket_ty	socket_tz	pros_ankle_rx	pros_ankle_ry	pros_ankle_rz	pros_ankle_tx	pros_ankle_ty	pros_ankle_tz	foot_flex	lumbar_extension	lumbar_bending	lumbar_rotation
      0.29583333	      2.85947576	     -5.98405768	     -0.67056689	     -0.36104018	      1.05054070	      0.37578770	      7.04196778	      3.23531098	     -8.45600619	    -61.22500435	     -0.62367711	      3.95971642	     14.48470016	      6.54981990	     -7.27887972	    -10.91741568	    -21.65047812	     -1.72124703	     -0.73391130	      8.67446959	      0.00000000	     -0.02016408	      0.00000000	      0.00000000	      0.00000000	      0.00000000	      0.00000000	      0.00000000	      0.00000000	      5.57008365	    -23.09144945	     -5.54983055	      2.67861273
      0.30000000	      2.93083094	     -6.09273179	     -0.59845049	     -0.35557413	      1.05133503	      0.37537329	      7.49815858	      3.31459761	     -8.62015072	    -61.01229382	      0.07525640	      3.95318332	     14.52397379	      6.07368952	     -7.36007574	    -10.95871017	    -21.54427644	     -1.75909037	     -0.77096666	      8.73319078	      0.00000000	     -0.01996836	      0.00000000	      0.00000000	      0.00000000	      0.00000000	      0.00000000	      0.00000000	      0.00000000	      5.79572627	    -23.11454977	     -5.36830885	      2.61535766
      0.30416667	      3.00293474	     -6.24102389	     -0.51983873	     -0.35004397	      1.05213162	      0.37504074	      7.92437200	      3.47023067	     -8.77270545	    -60.73291512	      1.01634025	      4.03025637	     14.57830375	      5.56492074	     -7.49501760	    -11.00698907	    -21.36640916	     -1.76355424	     -0.79077582	      8.83056438	      0.00000000	     -0.01989780	      0.00000000	      0.00000000	      0.00000000	      0.00000000	      0.00000000	      0.00000000	      0.00000000	      5.93650333	    -23.12821991	     -5.10650543	      2.50738341
      0.30833333	      3.06476269	     -6.37562146	     -0.45499754	     -0.34454907	      1.05294874	      0.37469782	      8.35348559	      3.59262910	     -8.93515083	    -60.38951971	      1.80035921	      4.16303422	     14.61105435	      5.07192878	     -7.60957832	    -11.07527512	    -21.19703290	     -1.77026770	     -0.82265566	      8.88882726	      0.00000000	     -0.01972272	      0.00000000	      0.00000000	      0.00000000	      0.00000000	      0.00000000	      0.00000000	      0.00000000	      6.10372751	    -23.14664464	     -4.88225398	      2.40348193
      0.31250000	      3.13167575	     -6.51079081	     -0.38614659	     -0.33907348	      1.05374644	      0.37430008	      8.76376695	      3.71064064	     -9.10359234	    -59.99792865	      2.56817960	      4.32012298	     14.63259164	      4.57118342	     -7.72011188	    -11.12922781	    -21.01282097	     -1.77405533	     -0.84865234	      8.95683849	      0.00000000	     -0.01957524	      0.00000000	      0.00000000	      0.00000000	      0.00000000	      0.00000000	      0.00000000	      0.00000000	      6.23956492	    -23.16398267	     -4.64626427	      2.30606474
      0.31666667	      3.33084958	     -6.62843437	     -0.34318272	     -0.33352704	      1.05472637	      0.37389001	      9.00718614	      3.76683900	     -9.29746541	    -59.56624942	      3.44165026	      5.08494381	     14.45586177	      3.77505791	     -7.78337690	    -11.20680417	    -20.44906870	     -1.56639518	     -0.83029915	      9.01681399	      0.00000000	     -0.01965100	      0.00000000	      0.00000000	      0.00000000	      0.00000000	      0.00000000	      0.00000000	      0.00000000	      6.35400857	    -23.33520082	     -4.37632733	      2.08323078
      0.32083333	      3.39545096	     -6.73041532	     -0.24487360	     -0.32812458	      1.05549991	      0.37350059	      9.40018908	      3.84211348	     -9.51933092	    -59.08906376	      4.13499855	      5.06066190	     14.42434786	      3.28894306	     -7.85465117	    -11.20283414	    -20.25140211	     -1.55074663	     -0.85254849	      9.04949336	      0.00000000	     -0.01941172	      0.00000000	      0.00000000	      0.00000000	      0.00000000	      0.00000000	      0.00000000	      0.00000000	      6.49286571	    -23.34691719	     -4.20911399	      2.04790018
      0.32500000	      3.58435643	     -6.84314387	     -0.17485886	     -0.32261067	      1.05650987	      0.37298410	      9.61136670	      3.89206537	     -9.73275323	    -58.51318058	      4.84035769	      5.57412890	     14.04569849	      2.48178157	     -7.88751189	    -11.18592495	    -19.56613037	     -1.24940507	     -0.81291412	      8.99535435	      0.00000000	     -0.01945194	      0.00000000	      0.00000000	      0.00000000	      0.00000000	      0.00000000	      0.00000000	      0.00000000	      6.60661510	    -23.52727985	     -3.95677046	      1.87731001
      0.32916667	      3.62522039	     -6.96656548	     -0.10135639	     -0.31726877	      1.05720905	      0.37269011	     10.00896876	      4.01455634	     -9.92690686	    -57.94181985	      5.47705477	      5.57699319	     13.97902188	      2.02373938	     -7.98946588	    -11.18581700	    -19.36498284	     -1.23152623	     -0.81629953	      9.00719248	      0.00000000	     -0.01924223	      0.00000000	      0.00000000	      0.00000000	      0.00000000	      0.00000000	      0.00000000	      0.00000000	      6.73841412	    -23.52987134	     -3.74333973	      1.82610337
      0.33333333	      3.67324544	     -7.12686654	     -0.01671145	     -0.31186444	      1.05793094	      0.37232348	     10.35989235	      4.17326682	    -10.13010342	    -57.28099257	      6.07071089	      5.70245917	     13.87858834	      1.53751565	     -8.12871577	    -11.20626887	    -19.12547463	     -1.19360033	     -0.82512849	      9.04430935	      0.00000000	     -0.01905300	      0.00000000	      0.00000000	      0.00000000	      0.00000000	      0.00000000	      0.00000000	      0.00000000	      6.86885635	    -23.53375265	     -3.47547940	      1.73673005
      0.33750000	      3.72980631	     -7.27749393	      0.07290151	     -0.30645612	      1.05866322	      0.37197108	     10.68123129	      4.32075984	    -10.34089007	    -56.56389041	      6.62398497	      5.87042985	     13.73057732	      1.03439069	     -8.25935984	    -11.23443315	    -18.85799988	     -1.14661257	     -0.82650055	      9.08255898	      0.00000000	     -0.01883808	      0.00000000	      0.00000000	      0.00000000	      0.00000000	      0.00000000	      0.00000000	      0.00000000	      6.99337749	    -23.56046918	     -3.20094098	      1.63535344
      0.34166667	      4.07614200	     -7.33351900	      0.17818394	     -0.30099222	      1.05989423	      0.37144513	     10.64596475	      4.30350832	    -10.61289213	    -55.79717458	      7.24726582	      6.36398829	     12.69785885	     -0.00767370	     -8.21543186	    -11.18889898	    -17.94808773	     -0.70341642	     -0.76866538	      8.99729868	      0.00000000	     -0.01875933	      0.00000000	      0.00000000	      0.00000000	      0.00000000	      0.00000000	      0.00000000	      0.00000000	      7.11557333	    -23.94521761	     -3.04915222	      1.47321706
      0.34583333	      4.04659936	     -7.47964114	      0.24869343	     -0.29566353	      1.06045636	      0.37114961	     11.04358262	      4.47664966	    -10.78135582	    -55.01256304	      7.74484773	      6.37300640	     12.61775924	     -0.37433645	     -8.35033817	    -11.19751131	    -17.78271861	     -0.70341941	     -0.77619771	      9.01014473	      0.00000000	     -0.01848521	      0.00000000	      0.00000000	      0.00000000	      0.00000000	      0.00000000	      0.00000000	      0.00000000	      7.23511085	    -23.86682877	     -2.81975653	      1.42282745
      0.35000000	      4.02340651	     -7.51862773	      0.28982454	     -0.29048478	      1.06101892	      0.37089130	     11.45209344	      4.52088335	    -10.91969838	    -54.22659564	      8.01326965	      6.37518945	     12.58589669	     -0.69737886	     -8.36262601	    -11.23219879	    -17.74213614	     -0.77940924	     -0.81850731	      8.97892477	      0.00000000	     -0.01797186	      0.00000000	      0.00000000	      0.00000000	      0.00000000	      0.00000000	      0.00000000	      0.00000000	      7.34262317	    -23.88750751	     -2.75983137	      1.39539087
      0.35416667	      4.01509323	     -7.63906344	      0.39241933	     -0.28514865	      1.06158555	      0.37058844	     11.77763007	      4.66750778	    -11.10696105	    -53.33058552	      8.43356486	      6.39567605	     12.53438909	     -1.06380440	     -8.47811981	    -11.24897312	    -17.62319469	     -0.81019319	     -0.84410670	      9.01754886	      0.00000000	     -0.01759394	      0.00000000	      0.00000000	      0.00000000	      0.00000000	      0.00000000	      0.00000000	      0.00000000	      7.46521108	    -23.83947981	     -2.58716225	      1.33402844
      0.35833333	      4.15002234	     -8.00166830	      0.57347093	     -0.27956006	      1.06228292	      0.37006020	     11.85382551	      5.05561971	    -11.42992264	    -52.26270384	      8.96048736	      6.61492836	     12.13279585	     -1.72466175	     -8.85337695	    -11.28360265	    -17.13592823	     -0.62207807	     -0.80542638	      9.18858657	      0.00000000	     -0.01782896	      0.00000000	      0.00000000	      0.00000000	      0.00000000	      0.00000000	      0.00000000	      0.00000000	      7.57336642	    -23.88511901	     -1.91578090	      1.08278121
      0.36250000	      4.54481260	     -8.01211701	      0.64301039	     -0.27419531	      1.06352909	      0.36975484	     11.69027533	      5.05541799	    -11.63886991	    -51.29606184	      9.54041392	      6.87471140	     10.26383438	     -2.88830860	     -8.76020088	    -11.23591802	    -16.01813461	     -0.06592289	     -0.69549992	      9.02190478	      0.00000000	     -0.01758968	      0.00000000	      0.00000000	      0.00000000	      0.00000000	      0.00000000	      0.00000000	      0.00000000	      7.68142908	    -24.34645279	     -1.86720413	      0.99460293
      0.36666667	      4.48902385	     -8.01505884	      0.68297083	     -0.26907765	      1.06392386	      0.36954524	     12.07732318	      5.07063271	    -11.77873562	    -50.37914032	      9.78561843	      6.85772098	     10.23947742	     -3.15913050	     -8.73759508	    -11.26895012	    -16.00255132	     -0.14944619	     -0.74115473	      8.99010909	      0.00000000	     -0.01705846	      0.00000000	      0.00000000	      0.00000000	      0.00000000	      0.00000000	      0.00000000	      0.00000000	      7.77513322	    -24.34875612	     -1.83402851	      0.97618630
      0.37083333	      4.49431544	     -8.29617579	      0.87685965	     -0.26353068	      1.06433317	      0.36915243	     12.26070512	      5.39334472	    -12.10397017	    -49.22961879	     10.23257073	      6.85554339	     10.07283379	     -3.59045736	     -9.05165012	    -11.26100082	    -15.73119352	     -0.09850166	     -0.72428149	      9.12935554	      0.00000000	     -0.01706941	      0.00000000	      0.00000000	      0.00000000	      0.00000000	      0.00000000	      0.00000000	      0.00000000	      7.88539895	    -24.17473899	     -1.36858394	      0.81302282
      0.37500000	      4.76507928	     -8.39976492	      0.97985935	     -0.25821490	      1.06526504	      0.36884395	     12.16240712	      5.54831987	    -12.27323809	    -48.07020974	     10.56656380	      6.92920466	      8.54264108	     -4.49367862	     -9.10202191	    -11.24883572	    -14.93532606	      0.28015190	     -0.64971504	      9.05995240	      0.00000000	     -0.01685232	      0.00000000	      0.00000000	      0.00000000	      0.00000000	      0.00000000	      0.00000000	      0.00000000	      7.99392386	    -24.51835454	     -1.15789164	      0.65893402
